<svg xmlns="http://www.w3.org/2000/svg" xmlns:cc="http://web.resource.org/cc/" xmlns:svg="http://www.w3.org/2000/svg" id="svg2" width="987.66" height="610.995" version="1.0"><metadata id="metadata7"/><path style="opacity:1;fill:none;fill-opacity:1;fill-rule:nonzero;stroke:#fff;stroke-width:1.91176352;stroke-linejoin:miter;stroke-opacity:1;stroke-miterlimit:4;stroke-dasharray:none" id="path1873" d="M 36.355438,2354.0146 A 301.58487,281.75464 0 0 1 337.94031,2072.26" transform="matrix(2.022351,0,0,2.164687,-73.02346,-4485.255)"/><path id="path1875" d="M 36.355438,2354.0146 A 301.58487,281.75464 0 0 1 337.94031,2072.26" transform="matrix(-1.247009,0,0,1.334775,1031.657,-2765.459)" style="opacity:1;fill:none;fill-opacity:1;fill-rule:nonzero;stroke:#fff;stroke-width:3.10042454;stroke-linejoin:miter;stroke-opacity:1;stroke-miterlimit:4;stroke-dasharray:none"/><path style="opacity:1;fill:none;fill-opacity:1;fill-rule:nonzero;stroke:#fff;stroke-width:5.01917874;stroke-linejoin:miter;stroke-opacity:1;stroke-miterlimit:4;stroke-dasharray:none" id="path2762" d="M 36.355438,2354.0146 A 301.58487,281.75464 0 0 1 337.94031,2072.26" transform="matrix(0,-0.770297,-0.824511,0,2694.923,636.9008)"/><path id="path2764" d="M 36.355438,2354.0146 A 301.58487,281.75464 0 0 1 337.94031,2072.26" transform="matrix(0.473354,0,0,-0.50667,594.0855,1658.848)" style="opacity:1;fill:none;fill-opacity:1;fill-rule:nonzero;stroke:#fff;stroke-width:8.16778638;stroke-linejoin:miter;stroke-opacity:1;stroke-miterlimit:4;stroke-dasharray:none"/><path style="opacity:1;fill:none;fill-opacity:1;fill-rule:nonzero;stroke:#fff;stroke-width:13.31900166;stroke-linejoin:miter;stroke-opacity:1;stroke-miterlimit:4;stroke-dasharray:none" id="path2766" d="M 36.355438,2354.0146 A 301.58487,281.75464 0 0 1 337.94031,2072.26" transform="matrix(0.290281,0,0,0.310712,600.7412,-265.2473)"/><path id="path2768" d="M 36.355438,2354.0146 A 301.58487,281.75464 0 0 1 337.94031,2072.26" transform="matrix(-0.181793,0,0,0.194589,760.2218,-24.60904)" style="opacity:1;fill:none;fill-opacity:1;fill-rule:nonzero;stroke:#fff;stroke-width:21.26729572;stroke-linejoin:miter;stroke-opacity:1;stroke-miterlimit:4;stroke-dasharray:none"/><path style="opacity:1;fill:none;fill-opacity:1;fill-rule:nonzero;stroke:#fff;stroke-width:35.26656166;stroke-linejoin:miter;stroke-opacity:1;stroke-miterlimit:4;stroke-dasharray:none" id="path2770" d="M 36.355438,2354.0146 A 301.58487,281.75464 0 0 1 337.94031,2072.26" transform="matrix(-0.109629,0,0,-0.117346,757.5983,709.0538)"/><path id="path2772" d="M 36.355438,2354.0146 A 301.58487,281.75464 0 0 1 337.94031,2072.26" transform="matrix(6.725143e-2,0,0,-7.198541e-2,697.9484,615.0548)" style="opacity:1;fill:none;fill-opacity:1;fill-rule:nonzero;stroke:#fff;stroke-width:57.48929572;stroke-linejoin:miter;stroke-opacity:1;stroke-miterlimit:4;stroke-dasharray:none"/><path style="opacity:1;fill:none;fill-opacity:1;fill-rule:nonzero;stroke:#fff;stroke-width:93.52216932;stroke-linejoin:miter;stroke-opacity:1;stroke-miterlimit:4;stroke-dasharray:none" id="path2774" d="M 36.355438,2354.0146 A 301.58487,281.75464 0 0 1 337.94031,2072.26" transform="matrix(4.134032e-2,0,0,4.425038e-2,698.8904,341.5598)"/><path id="path2776" d="M 36.355438,2354.0146 A 301.58487,281.75464 0 0 1 337.94031,2072.26" transform="matrix(-2.269401e-2,0,0,2.429152e-2,720.4049,382.9198)" style="opacity:1;fill:none;fill-opacity:1;fill-rule:nonzero;stroke:#fff;stroke-width:170.36368482;stroke-linejoin:miter;stroke-opacity:1;stroke-miterlimit:4;stroke-dasharray:none"/><path style="opacity:1;fill:none;fill-opacity:1;fill-rule:nonzero;stroke:#fff;stroke-width:246.70570572;stroke-linejoin:miter;stroke-opacity:1;stroke-miterlimit:4;stroke-dasharray:none" id="path2778" d="M 36.355438,2354.0146 A 301.58487,281.75464 0 0 1 337.94031,2072.26" transform="matrix(0,-1.567144e-2,-1.677462e-2,0,754.3412,445.2738)"/><path id="path2780" d="M 36.355438,2354.0146 A 301.58487,281.75464 0 0 1 337.94031,2072.26" transform="matrix(6.469458e-3,0,0,-6.924892e-3,712.7925,459.0548)" style="opacity:1;fill:none;fill-opacity:1;fill-rule:nonzero;stroke:#fff;stroke-width:597.61231742;stroke-linejoin:miter;stroke-opacity:1;stroke-miterlimit:4;stroke-dasharray:none"/><path style="opacity:1;fill:none;fill-opacity:1;fill-rule:nonzero;stroke:#fff;stroke-width:653.53858052;stroke-linejoin:miter;stroke-opacity:1;stroke-miterlimit:4;stroke-dasharray:none" id="path2782" d="M 36.355438,2354.0146 A 301.58487,281.75464 0 0 1 337.94031,2072.26" transform="matrix(0,5.077039e-3,7.378482e-3,0,697.7376,441.2188)"/><path style="fill:none;fill-opacity:1;fill-rule:nonzero;stroke:#fff;stroke-width:2;stroke-linejoin:miter;stroke-opacity:1" id="rect2784" d="M 712.3099,445.48994 L 712.3099,432.52678"/><path style="fill:none;fill-opacity:1;fill-rule:nonzero;stroke:#fff;stroke-width:2;stroke-linejoin:miter;stroke-opacity:1" id="rect2786" d="M 720.30713,445.48994 L 699.38339,445.48994"/><path style="fill:none;fill-opacity:1;fill-rule:nonzero;stroke:#fff;stroke-width:2;stroke-linejoin:miter;stroke-opacity:1" id="rect2788" d="M 712.30972,440.52336 L 720.23381,440.52336"/><path style="fill:none;fill-opacity:1;fill-rule:nonzero;stroke:#fff;stroke-width:2;stroke-linejoin:miter;stroke-opacity:1" id="rect2790" d="M 715.2674,440.52336 L 715.2674,445.48954"/><path style="fill:none;fill-opacity:1;fill-rule:nonzero;stroke:#fff;stroke-width:2;stroke-linejoin:miter;stroke-opacity:1" id="rect2792" d="M 715.2674,442.49549 L 712.30948,442.49549"/><path style="fill:none;fill-opacity:1;fill-rule:nonzero;stroke:#fff;stroke-width:2;stroke-linejoin:miter;stroke-opacity:1" id="rect2794" d="M 720.30713,432.52653 L 720.30713,466.52284"/><path style="fill:none;fill-opacity:1;fill-rule:nonzero;stroke:#fff;stroke-width:2;stroke-linejoin:miter;stroke-opacity:1" id="rect2796" d="M 699.38363,432.52653 L 754.2489,432.52653"/><path style="fill:none;fill-opacity:1;fill-rule:nonzero;stroke:#fff;stroke-width:2;stroke-linejoin:miter;stroke-opacity:1" id="rect2798" d="M 699.38363,466.52217 L 699.38363,377.48576"/><path style="fill:none;fill-opacity:1;fill-rule:nonzero;stroke:#fff;stroke-width:2;stroke-linejoin:miter;stroke-opacity:1" id="rect2800" d="M 754.24901,466.52217 L 610.30258,466.52217"/><path style="fill:none;fill-opacity:1;fill-rule:nonzero;stroke:#fff;stroke-width:2;stroke-linejoin:miter;stroke-opacity:1" id="rect2802" d="M 754.24901,377.48564 L 754.24901,610.4945"/><path style="fill:none;fill-opacity:1;fill-rule:nonzero;stroke:#fff;stroke-width:2;stroke-linejoin:miter;stroke-opacity:1" id="rect2804" d="M 610.30252,377.48564 L 987.15967,377.48564"/><path style="fill:none;fill-opacity:1;fill-rule:nonzero;stroke:#fff;stroke-width:2;stroke-linejoin:miter;stroke-opacity:1" id="rect2806" d="M 610.30252,610.49292 L 610.30252,0.50000006"/></svg>